<svg viewBox="0 0 169 164" fill="none" xmlns="http://www.w3.org/2000/svg"><rect x="69.073" y="1.945" width="74" height="104" rx="6" transform="rotate(6 69.073 1.945)" fill="#fff" stroke="#000" stroke-width="2"/><path d="M78.445 18.012l50.223 5.28M76.772 33.925l41.273 4.338M75.204 48.843l49.229 5.174M73.741 62.766l44.256 4.651" stroke="#000" stroke-width="2" stroke-linecap="round" stroke-linejoin="round"/><rect x="2.1" y="30.712" width="74" height="104" rx="6" transform="rotate(-10 2.1 30.712)" fill="#fff" stroke="#000" stroke-width="2"/><path d="M15.537 43.574l49.733-8.77M18.316 59.33l40.869-7.206M20.92 74.103l48.748-8.596M23.351 87.89l43.824-7.727" stroke="#000" stroke-width="2" stroke-linecap="round" stroke-linejoin="round"/><path fill-rule="evenodd" clip-rule="evenodd" d="M155.708 114.605a1 1 0 0 1 .246 1.393l-23.118 33.016a1.002 1.002 0 0 1-1.393.246l-26.404-18.489-20.517 29.301a1 1 0 0 1-1.357.269l-19.877-12.668-13.02 14.459a1 1 0 0 1-1.486-1.338l13.586-15.089a1 1 0 0 1 1.28-.174l19.785 12.609 20.541-29.335a1 1 0 0 1 1.393-.246l26.404 18.489 22.545-32.197a.998.998 0 0 1 1.392-.246z" fill="#034456"/><path d="M166.404 98.714l-20.624 9.729 18.622 13.471 2.002-23.2z" fill="#06AAF5" stroke="#034456" stroke-width="2" stroke-linejoin="round"/></svg>