<svg viewBox="0 0 21 21" fill="none" xmlns="http://www.w3.org/2000/svg"><path d="M9.954.5a1 1 0 01.993.883l.007.117v3a1 1 0 01-1.993.117L8.954 4.5v-3a1 1 0 011-1z" fill="#BABABA"/><path d="M0 10.523a1 1 0 01.883-.993L1 9.523h3a1 1 0 01.117 1.993L4 11.523H1a1 1 0 01-1-1z" fill="#5C5C5C"/><path d="M19.952 10.495a1 1 0 01-.884.993l-.116.007h-3a1 1 0 01-.117-1.994l.117-.006h3a1 1 0 011 1z" fill="#BABABA"/><path d="M9.977 20.482a1 1 0 01-.993-.883l-.007-.117v-3a1 1 0 011.993-.116l.007.116v3a1 1 0 01-1 1z" fill="#A3A3A3"/><path d="M14.92 1.8a1 1 0 01.419 1.262l-.053.104-1.5 2.598a1 1 0 01-1.784-.895l.052-.105 1.5-2.598A1 1 0 0114.92 1.8z" fill="#B6B6B6"/><path d="M1.3 5.557a1 1 0 011.262-.418l.104.052 2.598 1.5a1 1 0 01-.895 1.785l-.105-.053-2.598-1.5A1 1 0 011.3 5.557z" fill="#414141"/><path d="M18.652 15.46a1 1 0 01-1.262.42l-.104-.053-2.599-1.5a1 1 0 01.896-1.785l.104.053 2.599 1.5a1 1 0 01.366 1.366z" fill="#BABABA"/><path d="M5.01 19.182a1 1 0 01-.418-1.261l.053-.105 1.5-2.598a1 1 0 011.784.896l-.052.104-1.5 2.598a1 1 0 01-1.366.366z" fill="#858585"/><path d="M18.584 5.466a1 1 0 01-.268 1.302l-.098.064-2.598 1.5a1 1 0 01-1.097-1.668l.097-.064 2.598-1.5a1 1 0 011.366.366z" fill="#BBB"/><path d="M4.966 1.893a1 1 0 011.302.268l.064.098 1.5 2.598a1 1 0 01-1.668 1.098L6.1 5.857 4.6 3.259a1 1 0 01.366-1.366z" fill="#272727"/><path d="M14.986 19.125a1 1 0 01-1.302-.269l-.064-.097-1.5-2.598a1 1 0 011.667-1.098l.065.098 1.5 2.598a1 1 0 01-.367 1.366z" fill="#BABABA"/><path d="M1.347 15.516a1 1 0 01.268-1.302l.098-.064 2.598-1.5a1 1 0 011.097 1.668l-.097.064-2.598 1.5a1 1 0 01-1.366-.366z" fill="#717171"/></svg>