<svg width="20" height="21" xmlns="http://www.w3.org/2000/svg"><g fill="#BABABA" fill-rule="nonzero"><path d="M9.954.5a1 1 0 0 1 .993.883l.007.117v3a1 1 0 0 1-1.993.117L8.954 4.5v-3a1 1 0 0 1 1-1zM0 10.523a1 1 0 0 1 .883-.993L1 9.523h3a1 1 0 0 1 .117 1.993L4 11.523H1a1 1 0 0 1-1-1zM19.952 10.495a1 1 0 0 1-.884.993l-.116.007h-3a1 1 0 0 1-.117-1.994l.117-.006h3a1 1 0 0 1 1 1zM9.977 20.482a1 1 0 0 1-.993-.883l-.007-.117v-3a1 1 0 0 1 1.993-.116l.007.116v3a1 1 0 0 1-1 1zM14.92 1.8a1 1 0 0 1 .419 1.262l-.053.104-1.5 2.598a1 1 0 0 1-1.784-.896l.052-.104 1.5-2.598A1 1 0 0 1 14.92 1.8zM1.3 5.557a1 1 0 0 1 1.262-.418l.104.052 2.598 1.5a1 1 0 0 1-.896 1.785l-.104-.053-2.598-1.5A1 1 0 0 1 1.3 5.557zM18.652 15.46a1 1 0 0 1-1.262.42l-.104-.053-2.599-1.5a1 1 0 0 1 .896-1.785l.104.053 2.599 1.5a1 1 0 0 1 .366 1.366zM5.01 19.182a1 1 0 0 1-.418-1.261l.053-.105 1.5-2.598a1 1 0 0 1 1.784.896l-.052.104-1.5 2.598a1 1 0 0 1-1.366.366zM18.584 5.466a1 1 0 0 1-.268 1.302l-.098.064-2.598 1.5a1 1 0 0 1-1.097-1.668l.097-.064 2.598-1.5a1 1 0 0 1 1.366.366zM4.966 1.893a1 1 0 0 1 1.302.268l.064.098 1.5 2.598a1 1 0 0 1-1.668 1.098L6.1 5.857 4.6 3.259a1 1 0 0 1 .366-1.366zM14.986 19.125a1 1 0 0 1-1.302-.269l-.064-.097-1.5-2.598a1 1 0 0 1 1.667-1.098l.065.098 1.5 2.598a1 1 0 0 1-.366 1.366zM1.347 15.516a1 1 0 0 1 .268-1.302l.098-.064 2.598-1.5a1 1 0 0 1 1.097 1.668l-.097.064-2.598 1.5a1 1 0 0 1-1.366-.366z"/></g></svg>