<svg viewBox="0 0 12 12" xmlns="http://www.w3.org/2000/svg"><path d="M11.19 6.667c.158.196.237.425.237.686a.919.919 0 0 1-.295.68l-2.275 2.275-.002-.004-1.25 1.25a.926.926 0 0 1-.552.287l-.128.009c-.21 0-.397-.05-.565-.151l-.122-.085L.883 6.258a1.097 1.097 0 0 1-.25-.378 1.541 1.541 0 0 1-.09-.372l-.015-.145V1.838c.016-.27.098-.478.244-.627a.02.02 0 0 1 .012-.005c0-.002.003-.004.005-.006.148-.146.357-.228.626-.244h3.526c.2.013.372.048.516.105.144.057.27.14.379.25l5.355 5.356zM3.525 2.532A1 1 0 1 0 2.11 3.947a1 1 0 0 0 1.414-1.415z" fill-rule="evenodd"/></svg>