<svg viewBox="0 0 597 597" xmlns="http://www.w3.org/2000/svg"><g fill="none" fill-rule="evenodd"><path d="M298.5 597C463.357 597 597 463.357 597 298.5S463.357 0 298.5 0 0 133.643 0 298.5 133.643 597 298.5 597zm.5-74c123.159 0 223-99.84 223-223 0-123.159-99.841-223-223-223-123.16 0-223 99.841-223 223 0 123.16 99.84 223 223 223z" fill="#FAFAFC"/><path fill="#C7C7CC" d="M300 83v12h-4V83zM321.622 84.137l-1.255 11.935-1.989-.21 1.255-11.934zM344.451 88.416l-2.495 11.738-1.956-.416L342.495 88zM366.61 93.618l-3.708 11.413-1.902-.618L364.708 93zM388.159 101.941l-4.881 10.962-1.827-.813 4.881-10.963zM408.464 113l-6 10.392-3.464-2L405 111z"/><path fill="#C7C7CC" d="M408.096 112.59l-6 10.392-3.464-2 6-10.392zM426.252 124.386l-7.053 9.708-1.618-1.176 7.053-9.708zM443.884 139.506l-8.03 8.917-1.486-1.338 8.03-8.918zM460.473 155.09l-8.918 8.03-1.338-1.486 8.918-8.03zM474.974 173.072l-9.709 7.054-1.175-1.618 9.708-7.054zM487.029 192.803l-10.393 6-2-3.465 10.393-6z"/><path fill="#C7C7CC" d="M487.171 193.274l-10.392 6-2-3.464 10.392-6zM496.997 212.568l-10.963 4.881-.813-1.827 10.962-4.881zM504.706 234.478l-11.412 3.708-.618-1.902 11.412-3.708zM511.281 256.269l-11.738 2.495-.416-1.956 11.738-2.495zM514.847 279.092l-11.934 1.255-.209-1.989 11.934-1.255zM515.422 302.207h-12v-4h12z"/><path fill="#C7C7CC" d="M514.903 301.5h-12v-4h12zM513.765 323.122l-11.934-1.255.209-1.989 11.935 1.255zM509.487 345.951l-11.738-2.495.416-1.956 11.738 2.495zM504.285 368.11l-11.413-3.708.618-1.902 11.413 3.708zM495.962 389.659L485 384.778l.813-1.827 10.963 4.881zM484.903 409.964l-10.393-6 2-3.464 10.393 6z"/><path fill="#C7C7CC" d="M485.313 409.596l-10.392-6 2-3.464 10.392 6zM473.517 427.752l-9.708-7.053 1.175-1.618 9.709 7.053zM458.397 445.384l-8.918-8.03 1.339-1.486 8.917 8.03zM442.812 461.973l-8.029-8.918 1.486-1.338 8.03 8.918zM424.83 476.474l-7.053-9.709 1.618-1.175 7.053 9.708zM405.1 488.529l-6-10.393 3.464-2 6 10.393z"/><path fill="#C7C7CC" d="M404.629 488.671l-6-10.392 3.464-2 6 10.392zM385.335 498.497l-4.881-10.963 1.827-.813 4.881 10.962zM363.425 506.206l-3.708-11.412 1.902-.618 3.708 11.412zM341.633 512.781l-2.495-11.738 1.957-.416 2.495 11.738zM318.81 516.347l-1.254-11.934 1.989-.209 1.254 11.934zM295.696 516.922v-12h4v12z"/><path fill="#C7C7CC" d="M295.403 516.903v-12h4v12zM273.781 515.765l1.255-11.934 1.989.209-1.255 11.935zM250.952 511.487l2.495-11.738 1.956.416-2.495 11.738zM228.793 506.285l3.708-11.413 1.902.618-3.708 11.413zM207.244 497.962L212.125 487l1.827.813-4.881 10.963zM186.939 486.903l6-10.392 3.464 2-6 10.392z"/><path fill="#C7C7CC" d="M187.307 487.313l6-10.392 3.464 2-6 10.392zM169.151 475.517l7.053-9.708 1.618 1.176-7.053 9.708zM151.519 460.397l8.03-8.917 1.486 1.338-8.03 8.918zM134.93 444.813l8.918-8.03 1.338 1.486-8.918 8.03zM120.429 426.831l9.709-7.054 1.175 1.618-9.708 7.054zM108.375 407.1l10.392-6 2 3.464-10.392 6z"/><path fill="#C7C7CC" d="M108.232 406.629l10.393-6 2 3.464-10.393 6zM98.406 387.335l10.963-4.881.813 1.827-10.962 4.881zM90.697 365.425l11.413-3.708.618 1.902-11.413 3.708zM84.123 343.634l11.737-2.495.416 1.956-11.738 2.495zM80.556 320.811l11.934-1.255.21 1.989-11.935 1.255zM79.981 297.696h12v4h-12z"/><path fill="#C7C7CC" d="M80.5 298.403h12v4h-12zM81.638 276.781l11.934 1.254-.21 1.99-11.933-1.255zM85.916 253.952l11.738 2.495-.416 1.956-11.738-2.495zM91.118 231.793l11.413 3.708-.618 1.902-11.413-3.708zM99.441 210.244l10.963 4.881-.814 1.827-10.963-4.881zM110.5 189.939l10.393 6-2 3.464-10.393-6z"/><path fill="#C7C7CC" d="M110.09 190.307l10.392 6-2 3.464-10.392-6zM121.886 172.151l9.708 7.053-1.175 1.618-9.709-7.053zM137.006 154.519l8.918 8.03-1.339 1.486-8.917-8.03zM152.591 137.93l8.029 8.918-1.486 1.338-8.03-8.918zM170.573 123.429l7.053 9.709-1.618 1.175-7.053-9.708zM190.303 111.374l6 10.393-3.464 2-6-10.393z"/><path fill="#C7C7CC" d="M190.774 111.232l6 10.392-3.464 2-6-10.392zM210.068 101.406l4.881 10.963-1.827.813-4.881-10.962zM231.978 93.697l3.709 11.412-1.903.618-3.708-11.412zM253.77 87.122l2.495 11.738-1.957.416-2.495-11.738zM276.593 83.556l1.254 11.934-1.989.209-1.254-11.934zM299.707 82.98v12h-4v-12z"/><path d="M288.248 135.448c1.11 0 2.123-.192 3.04-.576a6.927 6.927 0 002.368-1.616 7.162 7.162 0 001.52-2.432c.352-.928.528-1.936.528-3.024 0-1.067-.16-2.059-.48-2.976a6.889 6.889 0 00-1.392-2.384 6.456 6.456 0 00-2.224-1.584c-.875-.384-1.867-.576-2.976-.576a6.112 6.112 0 00-2.8.656c-.864.437-1.541 1.104-2.032 2l-.064-.064c.043-.49.09-1.019.144-1.584a13.91 13.91 0 01.272-1.712 11.38 11.38 0 01.496-1.648c.203-.523.47-.987.8-1.392.33-.405.736-.73 1.216-.976.48-.245 1.05-.368 1.712-.368.96 0 1.723.283 2.288.848.565.565.89 1.307.976 2.224h3.648c-.043-.917-.256-1.75-.64-2.496a6.448 6.448 0 00-1.488-1.92 6.792 6.792 0 00-2.096-1.248 7.083 7.083 0 00-2.528-.448c-1.579 0-2.907.352-3.984 1.056a8.208 8.208 0 00-2.608 2.736 12.245 12.245 0 00-1.424 3.728 19.647 19.647 0 00-.432 4.064c0 1.643.117 3.173.352 4.592.235 1.419.656 2.656 1.264 3.712a6.674 6.674 0 002.496 2.496c1.056.608 2.405.912 4.048.912zm-.128-3.04c-.661 0-1.243-.128-1.744-.384a3.74 3.74 0 01-1.264-1.04 4.587 4.587 0 01-.768-1.488 5.952 5.952 0 01-.256-1.76c0-.619.085-1.205.256-1.76.17-.555.427-1.04.768-1.456a3.736 3.736 0 011.264-.992c.501-.245 1.083-.368 1.744-.368s1.237.128 1.728.384c.49.256.901.592 1.232 1.008.33.416.576.901.736 1.456.16.555.24 1.13.24 1.728 0 .597-.08 1.179-.24 1.744a4.322 4.322 0 01-.736 1.488c-.33.427-.741.773-1.232 1.04-.49.267-1.067.4-1.728.4zm18.676 3.04c1.6 0 2.906-.368 3.92-1.104a7.587 7.587 0 002.368-2.816c.565-1.141.949-2.395 1.152-3.76.202-1.365.304-2.688.304-3.968 0-1.28-.102-2.603-.304-3.968-.203-1.365-.587-2.619-1.152-3.76a7.587 7.587 0 00-2.368-2.816c-1.014-.736-2.32-1.104-3.92-1.104s-2.907.368-3.92 1.104a7.587 7.587 0 00-2.368 2.816c-.566 1.141-.95 2.395-1.152 3.76a27.023 27.023 0 00-.304 3.968c0 1.28.101 2.603.304 3.968.202 1.365.586 2.619 1.152 3.76a7.587 7.587 0 002.368 2.816c1.013.736 2.32 1.104 3.92 1.104zm0-3.04c-.811 0-1.478-.23-2-.688-.523-.459-.939-1.077-1.248-1.856-.31-.779-.528-1.69-.656-2.736a27.411 27.411 0 01-.192-3.328c0-1.173.064-2.277.192-3.312.128-1.035.346-1.947.656-2.736.309-.79.725-1.413 1.248-1.872.522-.459 1.189-.688 2-.688.789 0 1.45.23 1.984.688.533.459.954 1.083 1.264 1.872.309.79.528 1.701.656 2.736.128 1.035.192 2.139.192 3.312s-.064 2.283-.192 3.328-.347 1.957-.656 2.736c-.31.779-.731 1.397-1.264 1.856-.534.459-1.195.688-1.984.688zM384.96 159.448c1.365 0 2.539-.25 3.52-.752.981-.501 1.787-1.141 2.416-1.92a7.596 7.596 0 001.376-2.592c.288-.95.432-1.872.432-2.768a9.257 9.257 0 00-.464-2.976 6.822 6.822 0 00-1.36-2.384 6.124 6.124 0 00-2.208-1.568c-.875-.373-1.867-.56-2.976-.56-.747 0-1.499.144-2.256.432-.757.288-1.381.71-1.872 1.264l-.064-.064 1.152-5.696h8.864V136.6h-11.584l-2.4 12.256h3.648c.299-.79.784-1.328 1.456-1.616a5.425 5.425 0 012.16-.432c.725 0 1.36.128 1.904.384.544.256.987.597 1.328 1.024.341.427.597.923.768 1.488.17.565.256 1.157.256 1.776 0 .683-.07 1.323-.208 1.92a4.209 4.209 0 01-.704 1.568c-.33.448-.763.8-1.296 1.056s-1.184.384-1.952.384c-1.195 0-2.155-.325-2.88-.976-.725-.65-1.141-1.584-1.248-2.8h-3.648c.043 1.13.272 2.117.688 2.96a6.335 6.335 0 001.68 2.128 7.182 7.182 0 002.448 1.296c.928.288 1.936.432 3.024.432zM199.96 159.448c1.365 0 2.539-.25 3.52-.752.981-.501 1.787-1.141 2.416-1.92a7.596 7.596 0 001.376-2.592c.288-.95.432-1.872.432-2.768a9.257 9.257 0 00-.464-2.976 6.822 6.822 0 00-1.36-2.384 6.124 6.124 0 00-2.208-1.568c-.875-.373-1.867-.56-2.976-.56-.747 0-1.499.144-2.256.432-.757.288-1.381.71-1.872 1.264l-.064-.064 1.152-5.696h8.864V136.6h-11.584l-2.4 12.256h3.648c.299-.79.784-1.328 1.456-1.616a5.425 5.425 0 012.16-.432c.725 0 1.36.128 1.904.384.544.256.987.597 1.328 1.024.341.427.597.923.768 1.488.17.565.256 1.157.256 1.776 0 .683-.07 1.323-.208 1.92a4.209 4.209 0 01-.704 1.568c-.33.448-.763.8-1.296 1.056s-1.184.384-1.952.384c-1.195 0-2.155-.325-2.88-.976-.725-.65-1.141-1.584-1.248-2.8h-3.648c.043 1.13.272 2.117.688 2.96a6.335 6.335 0 001.68 2.128 7.182 7.182 0 002.448 1.296c.928.288 1.936.432 3.024.432zm18.9 0c1.365 0 2.538-.25 3.52-.752.981-.501 1.786-1.141 2.416-1.92a7.596 7.596 0 001.376-2.592c.288-.95.432-1.872.432-2.768a9.257 9.257 0 00-.464-2.976 6.822 6.822 0 00-1.36-2.384 6.124 6.124 0 00-2.208-1.568c-.875-.373-1.867-.56-2.976-.56-.747 0-1.499.144-2.256.432-.758.288-1.382.71-1.872 1.264l-.064-.064 1.152-5.696h8.864V136.6h-11.584l-2.4 12.256h3.648c.298-.79.784-1.328 1.456-1.616a5.425 5.425 0 012.16-.432c.725 0 1.36.128 1.904.384.544.256.986.597 1.328 1.024.341.427.597.923.768 1.488.17.565.256 1.157.256 1.776 0 .683-.07 1.323-.208 1.92a4.209 4.209 0 01-.704 1.568c-.331.448-.763.8-1.296 1.056-.534.256-1.184.384-1.952.384-1.195 0-2.155-.325-2.88-.976-.726-.65-1.142-1.584-1.248-2.8h-3.648c.042 1.13.272 2.117.688 2.96a6.335 6.335 0 001.68 2.128 7.182 7.182 0 002.448 1.296c.928.288 1.936.432 3.024.432zM135.96 223.448c1.365 0 2.539-.25 3.52-.752.981-.501 1.787-1.141 2.416-1.92a7.596 7.596 0 001.376-2.592c.288-.95.432-1.872.432-2.768a9.257 9.257 0 00-.464-2.976 6.822 6.822 0 00-1.36-2.384 6.124 6.124 0 00-2.208-1.568c-.875-.373-1.867-.56-2.976-.56-.747 0-1.499.144-2.256.432-.757.288-1.381.71-1.872 1.264l-.064-.064 1.152-5.696h8.864V200.6h-11.584l-2.4 12.256h3.648c.299-.79.784-1.328 1.456-1.616a5.425 5.425 0 012.16-.432c.725 0 1.36.128 1.904.384.544.256.987.597 1.328 1.024.341.427.597.923.768 1.488.17.565.256 1.157.256 1.776 0 .683-.07 1.323-.208 1.92a4.209 4.209 0 01-.704 1.568c-.33.448-.763.8-1.296 1.056s-1.184.384-1.952.384c-1.195 0-2.155-.325-2.88-.976-.725-.65-1.141-1.584-1.248-2.8h-3.648c.043 1.13.272 2.117.688 2.96a6.335 6.335 0 001.68 2.128 7.182 7.182 0 002.448 1.296c.928.288 1.936.432 3.024.432zm18.836 0c1.6 0 2.906-.368 3.92-1.104a7.587 7.587 0 002.368-2.816c.565-1.141.949-2.395 1.152-3.76.202-1.365.304-2.688.304-3.968 0-1.28-.102-2.603-.304-3.968-.203-1.365-.587-2.619-1.152-3.76a7.587 7.587 0 00-2.368-2.816c-1.014-.736-2.32-1.104-3.92-1.104s-2.907.368-3.92 1.104a7.587 7.587 0 00-2.368 2.816c-.566 1.141-.95 2.395-1.152 3.76a27.023 27.023 0 00-.304 3.968c0 1.28.101 2.603.304 3.968.202 1.365.586 2.619 1.152 3.76a7.587 7.587 0 002.368 2.816c1.013.736 2.32 1.104 3.92 1.104zm0-3.04c-.811 0-1.478-.23-2-.688-.523-.459-.939-1.077-1.248-1.856-.31-.779-.528-1.69-.656-2.736a27.411 27.411 0 01-.192-3.328c0-1.173.064-2.277.192-3.312.128-1.035.346-1.947.656-2.736.309-.79.725-1.413 1.248-1.872.522-.459 1.189-.688 2-.688.789 0 1.45.23 1.984.688.533.459.954 1.083 1.264 1.872.309.79.528 1.701.656 2.736.128 1.035.192 2.139.192 3.312s-.064 2.283-.192 3.328-.347 1.957-.656 2.736c-.31.779-.731 1.397-1.264 1.856-.534.459-1.195.688-1.984.688zM117.824 311v-5.312h2.88v-2.88h-2.88V288.6h-3.456l-9.6 13.472v3.616h9.6V311h3.456zm-3.456-8.192h-6.784l6.72-9.856h.064v9.856zm17.492 8.64c1.365 0 2.538-.25 3.52-.752.981-.501 1.786-1.141 2.416-1.92a7.596 7.596 0 001.376-2.592c.288-.95.432-1.872.432-2.768a9.257 9.257 0 00-.464-2.976 6.822 6.822 0 00-1.36-2.384 6.124 6.124 0 00-2.208-1.568c-.875-.373-1.867-.56-2.976-.56-.747 0-1.499.144-2.256.432-.758.288-1.382.71-1.872 1.264l-.064-.064 1.152-5.696h8.864V288.6h-11.584l-2.4 12.256h3.648c.298-.79.784-1.328 1.456-1.616a5.425 5.425 0 012.16-.432c.725 0 1.36.128 1.904.384.544.256.986.597 1.328 1.024.341.427.597.923.768 1.488.17.565.256 1.157.256 1.776 0 .683-.07 1.323-.208 1.92a4.209 4.209 0 01-.704 1.568c-.331.448-.763.8-1.296 1.056-.534.256-1.184.384-1.952.384-1.195 0-2.155-.325-2.88-.976-.726-.65-1.142-1.584-1.248-2.8h-3.648c.042 1.13.272 2.117.688 2.96a6.335 6.335 0 001.68 2.128 7.182 7.182 0 002.448 1.296c.928.288 1.936.432 3.024.432zM140.824 400v-5.312h2.88v-2.88h-2.88V377.6h-3.456l-9.6 13.472v3.616h9.6V400h3.456zm-3.456-8.192h-6.784l6.72-9.856h.064v9.856zm17.428 8.64c1.6 0 2.906-.368 3.92-1.104a7.587 7.587 0 002.368-2.816c.565-1.141.949-2.395 1.152-3.76.202-1.365.304-2.688.304-3.968 0-1.28-.102-2.603-.304-3.968-.203-1.365-.587-2.619-1.152-3.76a7.587 7.587 0 00-2.368-2.816c-1.014-.736-2.32-1.104-3.92-1.104s-2.907.368-3.92 1.104a7.587 7.587 0 00-2.368 2.816c-.566 1.141-.95 2.395-1.152 3.76a27.023 27.023 0 00-.304 3.968c0 1.28.101 2.603.304 3.968.202 1.365.586 2.619 1.152 3.76a7.587 7.587 0 002.368 2.816c1.013.736 2.32 1.104 3.92 1.104zm0-3.04c-.811 0-1.478-.23-2-.688-.523-.459-.939-1.077-1.248-1.856-.31-.779-.528-1.69-.656-2.736a27.411 27.411 0 01-.192-3.328c0-1.173.064-2.277.192-3.312.128-1.035.346-1.947.656-2.736.309-.79.725-1.413 1.248-1.872.522-.459 1.189-.688 2-.688.789 0 1.45.23 1.984.688.533.459.954 1.083 1.264 1.872.309.79.528 1.701.656 2.736.128 1.035.192 2.139.192 3.312s-.064 2.283-.192 3.328-.347 1.957-.656 2.736c-.31.779-.731 1.397-1.264 1.856-.534.459-1.195.688-1.984.688zM200.864 463.448a9.55 9.55 0 003.04-.48 8 8 0 002.528-1.36 6.502 6.502 0 001.728-2.144c.427-.843.64-1.797.64-2.864 0-1.45-.357-2.683-1.072-3.696-.715-1.013-1.712-1.648-2.992-1.904v-.064c1.088-.384 1.888-.997 2.4-1.84.512-.843.768-1.83.768-2.96 0-.981-.203-1.85-.608-2.608a5.49 5.49 0 00-1.616-1.872 7.532 7.532 0 00-2.272-1.12 8.815 8.815 0 00-2.576-.384c-1.13 0-2.144.192-3.04.576a6.609 6.609 0 00-2.288 1.6 7.609 7.609 0 00-1.488 2.416 9.246 9.246 0 00-.608 3.024h3.648a5.535 5.535 0 01.192-1.68c.15-.544.379-1.035.688-1.472.31-.437.699-.784 1.168-1.04.47-.256 1.024-.384 1.664-.384 1.024 0 1.861.288 2.512.864.65.576.976 1.344.976 2.304 0 .683-.144 1.259-.432 1.728a3.13 3.13 0 01-1.136 1.104 4.987 4.987 0 01-1.6.56 8.45 8.45 0 01-1.792.128v2.72c.725-.021 1.435 0 2.128.064a5.44 5.44 0 011.872.496 3.312 3.312 0 011.344 1.168c.341.512.512 1.205.512 2.08 0 1.28-.41 2.267-1.232 2.96-.821.693-1.84 1.04-3.056 1.04-1.43 0-2.501-.453-3.216-1.36-.715-.907-1.05-2.043-1.008-3.408h-3.648c.021 1.173.203 2.24.544 3.2s.837 1.781 1.488 2.464c.65.683 1.461 1.21 2.432 1.584.97.373 2.107.56 3.408.56zm18.996 0c1.365 0 2.538-.25 3.52-.752.981-.501 1.786-1.141 2.416-1.92a7.596 7.596 0 001.376-2.592c.288-.95.432-1.872.432-2.768a9.257 9.257 0 00-.464-2.976 6.822 6.822 0 00-1.36-2.384 6.124 6.124 0 00-2.208-1.568c-.875-.373-1.867-.56-2.976-.56-.747 0-1.499.144-2.256.432-.758.288-1.382.71-1.872 1.264l-.064-.064 1.152-5.696h8.864V440.6h-11.584l-2.4 12.256h3.648c.298-.79.784-1.328 1.456-1.616a5.425 5.425 0 012.16-.432c.725 0 1.36.128 1.904.384.544.256.986.597 1.328 1.024.341.427.597.923.768 1.488.17.565.256 1.157.256 1.776 0 .683-.07 1.323-.208 1.92a4.209 4.209 0 01-.704 1.568c-.331.448-.763.8-1.296 1.056-.534.256-1.184.384-1.952.384-1.195 0-2.155-.325-2.88-.976-.726-.65-1.142-1.584-1.248-2.8h-3.648c.042 1.13.272 2.117.688 2.96a6.335 6.335 0 001.68 2.128 7.182 7.182 0 002.448 1.296c.928.288 1.936.432 3.024.432zM287.864 487.448a9.55 9.55 0 003.04-.48 8 8 0 002.528-1.36 6.502 6.502 0 001.728-2.144c.427-.843.64-1.797.64-2.864 0-1.45-.357-2.683-1.072-3.696-.715-1.013-1.712-1.648-2.992-1.904v-.064c1.088-.384 1.888-.997 2.4-1.84.512-.843.768-1.83.768-2.96 0-.981-.203-1.85-.608-2.608a5.49 5.49 0 00-1.616-1.872 7.532 7.532 0 00-2.272-1.12 8.815 8.815 0 00-2.576-.384c-1.13 0-2.144.192-3.04.576a6.609 6.609 0 00-2.288 1.6 7.609 7.609 0 00-1.488 2.416 9.246 9.246 0 00-.608 3.024h3.648a5.535 5.535 0 01.192-1.68c.15-.544.379-1.035.688-1.472.31-.437.699-.784 1.168-1.04.47-.256 1.024-.384 1.664-.384 1.024 0 1.861.288 2.512.864.65.576.976 1.344.976 2.304 0 .683-.144 1.259-.432 1.728a3.13 3.13 0 01-1.136 1.104 4.987 4.987 0 01-1.6.56 8.45 8.45 0 01-1.792.128v2.72c.725-.021 1.435 0 2.128.064a5.44 5.44 0 011.872.496 3.312 3.312 0 011.344 1.168c.341.512.512 1.205.512 2.08 0 1.28-.41 2.267-1.232 2.96-.821.693-1.84 1.04-3.056 1.04-1.43 0-2.501-.453-3.216-1.36-.715-.907-1.05-2.043-1.008-3.408h-3.648c.021 1.173.203 2.24.544 3.2s.837 1.781 1.488 2.464c.65.683 1.461 1.21 2.432 1.584.97.373 2.107.56 3.408.56zm18.932 0c1.6 0 2.906-.368 3.92-1.104a7.587 7.587 0 002.368-2.816c.565-1.141.949-2.395 1.152-3.76.202-1.365.304-2.688.304-3.968 0-1.28-.102-2.603-.304-3.968-.203-1.365-.587-2.619-1.152-3.76a7.587 7.587 0 00-2.368-2.816c-1.014-.736-2.32-1.104-3.92-1.104s-2.907.368-3.92 1.104a7.587 7.587 0 00-2.368 2.816c-.566 1.141-.95 2.395-1.152 3.76a27.023 27.023 0 00-.304 3.968c0 1.28.101 2.603.304 3.968.202 1.365.586 2.619 1.152 3.76a7.587 7.587 0 002.368 2.816c1.013.736 2.32 1.104 3.92 1.104zm0-3.04c-.811 0-1.478-.23-2-.688-.523-.459-.939-1.077-1.248-1.856-.31-.779-.528-1.69-.656-2.736a27.411 27.411 0 01-.192-3.328c0-1.173.064-2.277.192-3.312.128-1.035.346-1.947.656-2.736.309-.79.725-1.413 1.248-1.872.522-.459 1.189-.688 2-.688.789 0 1.45.23 1.984.688.533.459.954 1.083 1.264 1.872.309.79.528 1.701.656 2.736.128 1.035.192 2.139.192 3.312s-.064 2.283-.192 3.328-.347 1.957-.656 2.736c-.31.779-.731 1.397-1.264 1.856-.534.459-1.195.688-1.984.688zM384.544 463v-3.264h-10.912c.15-.49.427-.955.832-1.392.405-.437.88-.859 1.424-1.264.544-.405 1.136-.81 1.776-1.216a50 50 0 001.92-1.28 23.99 23.99 0 001.856-1.44 11.32 11.32 0 001.6-1.68 7.832 7.832 0 001.12-2c.277-.725.416-1.536.416-2.432a8.13 8.13 0 00-.352-2.288 6.203 6.203 0 00-1.2-2.224c-.565-.683-1.307-1.248-2.224-1.696-.917-.448-2.059-.672-3.424-.672-1.259 0-2.363.219-3.312.656a7.023 7.023 0 00-2.416 1.808c-.661.768-1.157 1.68-1.488 2.736-.33 1.056-.496 2.203-.496 3.44h3.648c.021-.79.101-1.525.24-2.208.139-.683.352-1.275.64-1.776a3.23 3.23 0 011.152-1.184c.48-.288 1.083-.432 1.808-.432.79 0 1.43.133 1.92.4s.875.597 1.152.992c.277.395.464.821.56 1.28.096.459.144.89.144 1.296-.021.875-.245 1.648-.672 2.32a8.607 8.607 0 01-1.632 1.872 17.992 17.992 0 01-2.176 1.616 40.37 40.37 0 00-2.272 1.552c-1.515 1.024-2.71 2.23-3.584 3.616-.875 1.387-1.323 3.008-1.344 4.864h15.296zm11.316.448c1.365 0 2.538-.25 3.52-.752.981-.501 1.786-1.141 2.416-1.92a7.596 7.596 0 001.376-2.592c.288-.95.432-1.872.432-2.768a9.257 9.257 0 00-.464-2.976 6.822 6.822 0 00-1.36-2.384 6.124 6.124 0 00-2.208-1.568c-.875-.373-1.867-.56-2.976-.56-.747 0-1.499.144-2.256.432-.758.288-1.382.71-1.872 1.264l-.064-.064 1.152-5.696h8.864V440.6h-11.584l-2.4 12.256h3.648c.298-.79.784-1.328 1.456-1.616a5.425 5.425 0 012.16-.432c.725 0 1.36.128 1.904.384.544.256.986.597 1.328 1.024.341.427.597.923.768 1.488.17.565.256 1.157.256 1.776 0 .683-.07 1.323-.208 1.92a4.209 4.209 0 01-.704 1.568c-.331.448-.763.8-1.296 1.056-.534.256-1.184.384-1.952.384-1.195 0-2.155-.325-2.88-.976-.726-.65-1.142-1.584-1.248-2.8h-3.648c.042 1.13.272 2.117.688 2.96a6.335 6.335 0 001.68 2.128 7.182 7.182 0 002.448 1.296c.928.288 1.936.432 3.024.432zM447.544 398v-3.264h-10.912c.15-.49.427-.955.832-1.392.405-.437.88-.859 1.424-1.264.544-.405 1.136-.81 1.776-1.216a50 50 0 001.92-1.28 23.99 23.99 0 001.856-1.44 11.32 11.32 0 001.6-1.68 7.832 7.832 0 001.12-2c.277-.725.416-1.536.416-2.432a8.13 8.13 0 00-.352-2.288 6.203 6.203 0 00-1.2-2.224c-.565-.683-1.307-1.248-2.224-1.696-.917-.448-2.059-.672-3.424-.672-1.259 0-2.363.219-3.312.656a7.023 7.023 0 00-2.416 1.808c-.661.768-1.157 1.68-1.488 2.736-.33 1.056-.496 2.203-.496 3.44h3.648c.021-.79.101-1.525.24-2.208.139-.683.352-1.275.64-1.776a3.23 3.23 0 011.152-1.184c.48-.288 1.083-.432 1.808-.432.79 0 1.43.133 1.92.4s.875.597 1.152.992c.277.395.464.821.56 1.28.096.459.144.89.144 1.296-.021.875-.245 1.648-.672 2.32a8.607 8.607 0 01-1.632 1.872 17.992 17.992 0 01-2.176 1.616 40.37 40.37 0 00-2.272 1.552c-1.515 1.024-2.71 2.23-3.584 3.616-.875 1.387-1.323 3.008-1.344 4.864h15.296zm11.252.448c1.6 0 2.906-.368 3.92-1.104a7.587 7.587 0 002.368-2.816c.565-1.141.949-2.395 1.152-3.76.202-1.365.304-2.688.304-3.968 0-1.28-.102-2.603-.304-3.968-.203-1.365-.587-2.619-1.152-3.76a7.587 7.587 0 00-2.368-2.816c-1.014-.736-2.32-1.104-3.92-1.104s-2.907.368-3.92 1.104a7.587 7.587 0 00-2.368 2.816c-.566 1.141-.95 2.395-1.152 3.76a27.023 27.023 0 00-.304 3.968c0 1.28.101 2.603.304 3.968.202 1.365.586 2.619 1.152 3.76a7.587 7.587 0 002.368 2.816c1.013.736 2.32 1.104 3.92 1.104zm0-3.04c-.811 0-1.478-.23-2-.688-.523-.459-.939-1.077-1.248-1.856-.31-.779-.528-1.69-.656-2.736a27.411 27.411 0 01-.192-3.328c0-1.173.064-2.277.192-3.312.128-1.035.346-1.947.656-2.736.309-.79.725-1.413 1.248-1.872.522-.459 1.189-.688 2-.688.789 0 1.45.23 1.984.688.533.459.954 1.083 1.264 1.872.309.79.528 1.701.656 2.736.128 1.035.192 2.139.192 3.312s-.064 2.283-.192 3.328-.347 1.957-.656 2.736c-.31.779-.731 1.397-1.264 1.856-.534.459-1.195.688-1.984.688zM467.2 311v-22.4h-2.976c-.128.683-.4 1.259-.816 1.728-.416.47-.917.853-1.504 1.152a6.99 6.99 0 01-1.968.64c-.725.128-1.472.192-2.24.192v2.88h5.504V311h4zm14.76.448c1.365 0 2.538-.25 3.52-.752.981-.501 1.786-1.141 2.416-1.92a7.596 7.596 0 001.376-2.592c.288-.95.432-1.872.432-2.768a9.257 9.257 0 00-.464-2.976 6.822 6.822 0 00-1.36-2.384 6.124 6.124 0 00-2.208-1.568c-.875-.373-1.867-.56-2.976-.56-.747 0-1.499.144-2.256.432-.758.288-1.382.71-1.872 1.264l-.064-.064 1.152-5.696h8.864V288.6h-11.584l-2.4 12.256h3.648c.298-.79.784-1.328 1.456-1.616a5.425 5.425 0 012.16-.432c.725 0 1.36.128 1.904.384.544.256.986.597 1.328 1.024.341.427.597.923.768 1.488.17.565.256 1.157.256 1.776 0 .683-.07 1.323-.208 1.92a4.209 4.209 0 01-.704 1.568c-.331.448-.763.8-1.296 1.056-.534.256-1.184.384-1.952.384-1.195 0-2.155-.325-2.88-.976-.726-.65-1.142-1.584-1.248-2.8h-3.648c.042 1.13.272 2.117.688 2.96a6.335 6.335 0 001.68 2.128 7.182 7.182 0 002.448 1.296c.928.288 1.936.432 3.024.432zM444.2 223v-22.4h-2.976c-.128.683-.4 1.259-.816 1.728-.416.47-.917.853-1.504 1.152a6.99 6.99 0 01-1.968.64c-.725.128-1.472.192-2.24.192v2.88h5.504V223h4zm13.996.448c1.6 0 2.906-.368 3.92-1.104a7.587 7.587 0 002.368-2.816c.565-1.141.949-2.395 1.152-3.76.202-1.365.304-2.688.304-3.968 0-1.28-.102-2.603-.304-3.968-.203-1.365-.587-2.619-1.152-3.76a7.587 7.587 0 00-2.368-2.816c-1.014-.736-2.32-1.104-3.92-1.104s-2.907.368-3.92 1.104a7.587 7.587 0 00-2.368 2.816c-.566 1.141-.95 2.395-1.152 3.76a27.023 27.023 0 00-.304 3.968c0 1.28.101 2.603.304 3.968.202 1.365.586 2.619 1.152 3.76a7.587 7.587 0 002.368 2.816c1.013.736 2.32 1.104 3.92 1.104zm0-3.04c-.811 0-1.478-.23-2-.688-.523-.459-.939-1.077-1.248-1.856-.31-.779-.528-1.69-.656-2.736a27.411 27.411 0 01-.192-3.328c0-1.173.064-2.277.192-3.312.128-1.035.346-1.947.656-2.736.309-.79.725-1.413 1.248-1.872.522-.459 1.189-.688 2-.688.789 0 1.45.23 1.984.688.533.459.954 1.083 1.264 1.872.309.79.528 1.701.656 2.736.128 1.035.192 2.139.192 3.312s-.064 2.283-.192 3.328-.347 1.957-.656 2.736c-.31.779-.731 1.397-1.264 1.856-.534.459-1.195.688-1.984.688z" fill="#C7C7CE" fill-rule="nonzero"/></g></svg>