<svg xmlns="http://www.w3.org/2000/svg" viewBox="0 0 131.12 37.65"><defs><style>.cls-2{fill:#fff}</style></defs><g id="レイヤー_2" data-name="レイヤー 2"><g id="レイヤー_1-2" data-name="レイヤー 1"><circle cx="18.39" cy="18.39" r="18.39" fill="#c62226"/><path class="cls-2" d="M17.15 7.45h2.46v12.46h-2.46z"/><path class="cls-2" d="M20.77 10.42V13a6.37 6.37 0 11-4.85 0v-2.56a8.85 8.85 0 104.85 0z"/><path d="M73.37 25.41c2 0 3.48-1.82 3.48-4.64 0-2.64-1.49-4.47-3.48-4.47S69.9 18 69.9 20.77s1.49 4.64 3.47 4.64m0-14.07c5.3 0 8.94 4 8.94 9.43 0 5.63-3.64 9.6-8.94 9.6s-9.1-4-9.1-9.6c0-5.46 3.81-9.43 9.1-9.43m19.69 14.07c2 0 3.48-1.82 3.48-4.64 0-2.64-1.49-4.3-3.48-4.3s-3.47 1.66-3.47 4.3c0 2.82 1.49 4.64 3.47 4.64m-1.32 4.8c-4.14 0-7.78-4-7.78-9.44 0-5.29 3.81-9.43 8.28-9.43a4.9 4.9 0 014.3 2A3.19 3.19 0 0199 11.51c1.82 0 2.65 1.32 2.65 4v10.72c0 3.15-.17 5.63-1.33 7.45-1.48 2.48-4.3 4-8.1 4-5 0-7.78-1.82-7.78-4a2.27 2.27 0 012.32-2.32c1.32 0 2.81 1.49 5.62 1.49 2.65 0 4.3-1.65 4.3-4.63 0-.17-.16-.33-.16-.66a5.23 5.23 0 01-4.8 2.65m-38.07-4.8c2 0 3.47-1.82 3.47-4.64 0-2.64-1.49-4.3-3.47-4.3s-3.48 1.66-3.48 4.3c0 2.82 1.49 4.64 3.48 4.64m-1.33 4.8c-4.13 0-7.77-4-7.77-9.44 0-5.29 3.8-9.43 8.27-9.43a4.9 4.9 0 014.3 2 3.21 3.21 0 012.48-1.82c1.82 0 2.65 1.32 2.65 4v10.71c0 3.15-.16 5.63-1.32 7.45-1.49 2.48-4.3 4-8.11 4-5 0-7.78-1.82-7.78-4a2.27 2.27 0 012.32-2.32c1.32 0 2.81 1.49 5.62 1.49 2.65 0 4.31-1.65 4.31-4.63 0-.17-.17-.33-.17-.66a5.23 5.23 0 01-4.8 2.65m60.91-4.8c2 0 3.64-1.82 3.64-4.64 0-2.64-1.65-4.3-3.64-4.3s-3.47 1.66-3.47 4.3c0 2.82 1.49 4.64 3.47 4.64m-1.16 4.8c-4.3 0-7.77-4-7.77-9.44 0-5.29 3.8-9.43 8.27-9.43a5.32 5.32 0 014.3 2c.66-1.16 1.49-1.82 2.32-1.82 1.82 0 2.81 1.32 2.81 4v10.71c0 3.15-.33 5.63-1.32 7.45-1.49 2.48-4.3 4-8.11 4-5 0-7.94-1.82-7.94-4a2.26 2.26 0 012.37-2.32c1.33 0 3 1.49 5.8 1.49 2.64 0 4.13-1.65 4.13-4.63v-.66a5.4 5.4 0 01-4.8 2.65m16.35-26.32c1.82 0 2.64 1.33 2.64 4v18.34c0 2.65-.82 3.81-2.64 3.81s-2.65-1.16-2.65-3.81V7.87c0-2.65.83-4 2.65-4" fill="#313333"/></g></g></svg>